<svg width="30" height="30" viewBox="0 0 30 30" fill="none" xmlns="http://www.w3.org/2000/svg">
<path fill-rule="evenodd" clip-rule="evenodd" d="M5.73553 4.81244H3V3.47998H6.82633L7.66462 7.64116H27L25.0186 16.4157H9.43231L10.1473 19.9646H24.4861V21.2971H9.05647L5.73553 4.81244ZM9.16388 15.0833H23.9535L25.3331 8.97362H7.93305L9.16388 15.0833Z" fill="#002051"/>
<path d="M12.9228 24.8321C12.9228 25.7381 12.1883 26.4725 11.2823 26.4725C10.3763 26.4725 9.64189 25.7381 9.64189 24.8321C9.64189 23.9261 10.3763 23.1916 11.2823 23.1916C12.1883 23.1916 12.9228 23.9261 12.9228 24.8321Z" fill="#002051"/>
<path d="M24.4461 24.8321C24.4461 25.7381 23.7116 26.4725 22.8056 26.4725C21.8996 26.4725 21.1651 25.7381 21.1651 24.8321C21.1651 23.9261 21.8996 23.1916 22.8056 23.1916C23.7116 23.1916 24.4461 23.9261 24.4461 24.8321Z" fill="#002051"/>
<circle cx="22" cy="8" r="8" fill="#E83850"/>
<path d="M22.6118 7.068C23.3878 7.164 23.9798 7.428 24.3878 7.86C24.7958 8.292 24.9998 8.832 24.9998 9.48C24.9998 9.968 24.8758 10.412 24.6278 10.812C24.3798 11.212 24.0038 11.532 23.4998 11.772C23.0038 12.004 22.3958 12.12 21.6758 12.12C21.0758 12.12 20.4958 12.036 19.9358 11.868C19.3838 11.692 18.9118 11.452 18.5198 11.148L19.1918 9.936C19.4958 10.192 19.8638 10.396 20.2958 10.548C20.7358 10.692 21.1878 10.764 21.6518 10.764C22.2038 10.764 22.6358 10.652 22.9478 10.428C23.2678 10.196 23.4278 9.884 23.4278 9.492C23.4278 9.1 23.2758 8.796 22.9718 8.58C22.6758 8.356 22.2198 8.244 21.6038 8.244H20.8358V7.176L22.7438 4.908H18.9278V3.6H24.6518V4.644L22.6118 7.068Z" fill="white"/>
</svg>
