<svg width="30" height="30" viewBox="0 0 30 30" fill="none" xmlns="http://www.w3.org/2000/svg">
<path fill-rule="evenodd" clip-rule="evenodd" d="M5.73553 4.81244H3V3.47998H6.82633L7.66462 7.64116H27L25.0186 16.4157H9.43231L10.1473 19.9646H24.4861V21.2971H9.05647L5.73553 4.81244ZM9.16388 15.0833H23.9535L25.3331 8.97362H7.93305L9.16388 15.0833Z" fill="#002051"/>
<path d="M12.9228 24.8321C12.9228 25.7381 12.1883 26.4725 11.2823 26.4725C10.3763 26.4725 9.64189 25.7381 9.64189 24.8321C9.64189 23.9261 10.3763 23.1916 11.2823 23.1916C12.1883 23.1916 12.9228 23.9261 12.9228 24.8321Z" fill="#002051"/>
<path d="M24.4461 24.8321C24.4461 25.7381 23.7116 26.4725 22.8056 26.4725C21.8996 26.4725 21.1651 25.7381 21.1651 24.8321C21.1651 23.9261 21.8996 23.1916 22.8056 23.1916C23.7116 23.1916 24.4461 23.9261 24.4461 24.8321Z" fill="#002051"/>
</svg>
